<?xml version="1.0" encoding="UTF-8" standalone="no"?>
<!-- Created with Inkscape (http://www.inkscape.org/) -->

<svg
   xmlns:dc="http://purl.org/dc/elements/1.1/"
   xmlns:cc="http://creativecommons.org/ns#"
   xmlns:rdf="http://www.w3.org/1999/02/22-rdf-syntax-ns#"
   xmlns:svg="http://www.w3.org/2000/svg"
   xmlns="http://www.w3.org/2000/svg"
   xmlns:sodipodi="http://sodipodi.sourceforge.net/DTD/sodipodi-0.dtd"
   xmlns:inkscape="http://www.inkscape.org/namespaces/inkscape"
   id="svg3499"
   version="1.1"
   inkscape:version="0.91 r13725"
   width="2773.75"
   height="956.25"
   viewBox="0 0 2773.75 956.25"
   sodipodi:docname="3-1c_ApontisLogo-white.svg"
   inkscape:export-filename="/Users/chrigi/Google Drive/07_apontis/02_corporateIdentity/logo/3-1c_ApontisLogo-bw.png"
   inkscape:export-xdpi="33"
   inkscape:export-ydpi="33">
  <metadata
     id="metadata3505">
    <rdf:RDF>
      <cc:Work
         rdf:about="">
        <dc:format>image/svg+xml</dc:format>
        <dc:type
           rdf:resource="http://purl.org/dc/dcmitype/StillImage" />
        <dc:title></dc:title>
      </cc:Work>
    </rdf:RDF>
  </metadata>
  <defs
     id="defs3503">
    <linearGradient
       id="linearGradient5613">
      <stop
         id="stop4200"
         offset="0"
         style="stop-color:#16b922;stop-opacity:1;" />
      <stop
         id="stop4202"
         offset="1"
         style="stop-color:#ffc21c;stop-opacity:1;" />
    </linearGradient>
    <linearGradient
       id="linearGradient4204">
      <stop
         style="stop-color:#16b922;stop-opacity:1;"
         offset="0"
         id="stop5615" />
      <stop
         style="stop-color:#ffc21c;stop-opacity:1;"
         offset="1"
         id="stop5617" />
    </linearGradient>
  </defs>
  <sodipodi:namedview
     pagecolor="#ffffff"
     bordercolor="#666666"
     borderopacity="1"
     objecttolerance="10"
     gridtolerance="10"
     guidetolerance="10"
     inkscape:pageopacity="0"
     inkscape:pageshadow="2"
     inkscape:window-width="1313"
     inkscape:window-height="744"
     id="namedview3501"
     showgrid="false"
     inkscape:zoom="0.29346553"
     inkscape:cx="1386.875"
     inkscape:cy="478.125"
     inkscape:window-x="117"
     inkscape:window-y="63"
     inkscape:window-maximized="0"
     inkscape:current-layer="layer4"
     inkscape:snap-global="false" />
  <g
     inkscape:groupmode="layer"
     id="layer4"
     inkscape:label="bg">
    <rect
       style="opacity:1;fill:#800000;fill-opacity:0;fill-rule:nonzero"
       id="rect4192"
       width="2828.271"
       height="1052.9346"
       x="-23.852886"
       y="-42.163696" />
  </g>
  <g
     inkscape:groupmode="layer"
     id="layer1"
     inkscape:label="text">
    <path
       style="fill:#ffffff;fill-opacity:1;opacity:0.209"
       d="m 308.78274,592.38849 c 0,-124.45442 0.1891,-130.43479 4.49451,-142.26443 12.50024,-34.34466 44.59488,-50.11793 95.61091,-46.98913 24.29013,1.48971 42.90077,8.99602 58.71279,23.68094 38.5663,35.81714 42.51572,141.74467 6.84209,183.51142 -9.15681,10.72083 -22.99526,19.1779 -40.59516,24.80887 -16.49207,5.27651 -54.01231,5.81331 -75.82259,1.08478 -8.00194,-1.73486 -15.30437,-2.68758 -16.22765,-2.11718 -0.9233,0.5704 -1.67872,20.64883 -1.67872,44.6188 l 0,43.5817 -15.66809,0 -15.66809,0 z m 105.64942,14.5862 c 23.67081,-5.15757 36.09235,-15.3339 44.59101,-36.53123 4.44646,-11.09033 5.08911,-16.78031 5.19755,-46.01842 0.1744,-47.07211 -6.50808,-66.26384 -28.07016,-80.61383 -27.51781,-18.31364 -78.01815,-11.16955 -90.23055,12.76459 -4.37231,8.56889 -4.7293,13.47799 -5.39766,74.22709 l -0.71572,65.05139 8.5071,3.65393 c 20.85633,8.95812 46.15879,11.81544 66.11843,7.46648 z M 120.99989,635.82983 C 84.5925,625.7654 64.805613,600.8866 64.81002,565.18009 c 0.0015,-18.21766 9.00623,-38.97415 21.498399,-49.55934 21.610031,-18.3112 61.105751,-27.49707 106.950071,-24.87432 l 24.36933,1.39414 -1.36317,-11.83203 c -1.59535,-13.84695 -9.72206,-27.73027 -19.9893,-34.14884 -17.09514,-10.68707 -51.66216,-12.55104 -86.75319,-4.67801 -11.5512,2.5916 -21.345271,4.71202 -21.764609,4.71202 -0.419338,0 -0.4665,-7.50675 -0.105014,-16.68167 l 0.657636,-16.68169 15.668077,-4.13575 c 8.61746,-2.27468 26.74768,-6.52839 40.28938,-7.22967 52.13088,-2.6997 81.34822,13.25384 98.20984,49.33063 l 6.99017,14.95598 0.69755,59.30733 c 0.68718,58.42588 0.61787,59.48617 -4.66238,71.34255 -9.55311,21.45055 -27.08515,34.32245 -55.18673,40.51778 -16.04144,3.53654 -54.78516,2.92762 -69.31641,-1.08937 z m 57.96156,-28.66109 c 15.76178,-3.5646 25.89429,-8.95203 31.64135,-16.82375 4.92908,-6.75135 5.29058,-9.2902 5.29058,-37.15843 l 0,-29.91199 -17.9064,-1.98906 c -21.72781,-2.41358 -53.92463,1.13095 -71.42942,7.86355 -26.25788,10.09921 -36.33863,38.22192 -21.42074,59.75835 11.17351,16.13075 45.59556,24.6454 73.82463,18.26133 z m 434.45887,28.78846 c -14.00447,-4.02051 -34.57496,-16.28666 -43.01961,-25.65259 -17.53798,-19.45128 -25.05353,-45.73778 -25.21165,-88.1805 -0.1272,-34.11379 3.06484,-51.0084 13.53514,-71.64045 8.9639,-17.66367 12.75812,-21.72308 30.61423,-32.75382 30.08649,-18.58614 80.09305,-17.12967 113.18067,-4.12979 37.49252,14.73052 51.58202,50.19767 51.65185,106.37578 0.0397,31.86813 -2.76467,49.0968 -11.01444,67.66883 -8.41524,18.94457 -21.60129,32.10131 -42.30045,42.2063 -16.66459,8.13539 -17.96637,8.38798 -46.25069,8.97283 -20.66357,0.42729 -32.60706,-0.40399 -41.18505,-2.86659 z m 63.54203,-31.16077 c 27.50411,-8.73282 38.73961,-25.72241 44.03158,-66.58156 2.16813,-16.74012 1.97569,-23.12436 -1.25165,-41.52072 -5.10137,-29.07853 -12.2629,-42.47067 -27.82116,-52.02586 -29.6844,-18.23084 -76.55132,-13.58526 -96.3084,9.54636 -3.6211,4.23959 -8.90664,13.74685 -11.74562,21.12721 -4.52284,11.75774 -5.16185,17.40664 -5.16185,45.63178 0,28.22518 0.63901,33.87407 5.16185,45.63176 2.83898,7.38041 8.22977,17.01089 11.9795,21.40109 17.09197,20.01131 49.70763,26.76236 81.11575,16.78994 z m 423.30785,30.19667 c -14.1103,-5.83278 -19.9422,-11.63535 -26.3682,-26.23559 -5.0577,-11.49168 -5.2513,-14.27642 -6.3362,-91.23524 l -1.1191,-79.38178 -18.466,-0.6683 -18.076,0.41386 0,-30.85199 c 73.0174,-0.51407 71.1408,-0.41064 128.7329,-0.41064 l -0.7303,31.15826 c -18.9157,-0.86366 -37.8384,-0.79165 -56.7669,-0.79165 l 0,74.43661 c 0,45.0672 0.9082,77.11513 2.3022,81.22539 5.1554,15.20315 28.8258,20.18934 52.1552,10.98657 3.2741,-1.29153 3.7382,0.5386 3.7382,14.74221 0,10.48356 -0.9893,16.85054 -2.7979,18.0093 -1.5388,0.98589 -12.3666,2.09258 -24.0617,2.45941 -17.0175,0.5337 -23.4489,-0.23636 -32.2062,-3.85642 z m 233.653,1.32156 c -5.5397,-1.64878 -14.8566,-5.17875 -20.7043,-7.84451 l -10.6319,-4.84674 0,-17.38631 c 0,-9.56245 0.9246,-17.38628 2.0544,-17.38628 1.1299,0 7.0198,2.56376 13.0885,5.69716 33.575,17.33565 80.8708,16.54406 95.7243,-1.60211 5.2592,-6.42523 5.8808,-8.84989 5.0158,-19.57089 -1.6876,-20.92012 -12.9244,-29.29909 -56.568,-42.18093 -28.1082,-8.29638 -33.7349,-10.92687 -44.8677,-20.97493 -12.3989,-11.191 -16.6855,-21.91858 -16.6855,-41.75661 0,-14.30282 1.0237,-19.01574 6.3919,-29.42842 7.0719,-13.71724 23.4452,-28.23484 36.1358,-32.04004 23.129,-6.9352 63.8156,-4.66509 84.4956,4.71437 l 9.5129,4.31455 0,16.23586 c 0,8.92966 -0.8336,16.23581 -1.8525,16.23581 -1.0187,0 -8.3212,-2.79055 -16.2276,-6.20123 -12.0802,-5.21119 -17.7701,-6.2214 -35.6391,-6.32753 -34.0789,-0.20247 -49.2426,9.87378 -49.2426,32.72171 0,13.51693 12.9694,23.37423 41.4759,31.52369 57.0289,16.30345 74.4625,32.40739 76.6954,70.84594 1.3238,22.78974 -2.8016,34.64224 -16.6127,47.72907 -17.0505,16.15636 -26.4503,19.21173 -61.2693,19.91541 -19.8713,0.40161 -33.6654,-0.41564 -40.2893,-2.38704 z M 805.6849,530.42351 c 0,-99.50652 0.26571,-106.85756 3.91702,-108.38206 35.87862,-14.97993 66.3973,-19.01271 98.82282,-17.12937 37.23502,2.16264 60.54355,13.87368 73.40043,40.78825 l 6.28099,13.14846 0.68052,89.16068 0.68044,89.1607 -15.63558,0 -15.63539,0 -0.72415,-81.10748 c -0.64379,-72.11351 -1.17042,-82.12803 -4.74889,-90.31115 -9.14456,-20.91195 -26.30941,-29.62831 -57.56187,-29.2302 -14.7809,0.18849 -49.47933,5.86356 -54.20467,8.86569 -0.93346,0.59306 -1.69721,43.98687 -1.69721,96.43073 l 0,95.35241 -16.78724,0 -16.78722,0 z m 405.1319,-8.2994 1.0704,-115.12591 32.752,0 -0.2479,115.12591 0,115.04606 -16.7872,0 -16.7873,0 z"
       id="path3553"
       inkscape:connector-curvature="0"
       sodipodi:nodetypes="scssssssscccssssssscssccsscssssccssscsssccssscsssssssssssssssssssssssssssscccccccscsscsssscsssscsssssscsssssssssssssscccccsscsscccscccccccc" />
  </g>
  <g
     inkscape:groupmode="layer"
     id="layer2"
     inkscape:label="div"
     style="display:none">
    <rect
       style="fill:#ffffff;fill-opacity:1"
       id="rect3486"
       width="89.704254"
       height="96.786171"
       x="1159.0734"
       y="309.43512" />
  </g>
  <path
     style="opacity:0.206;fill:#ffffff;fill-opacity:1;fill-rule:nonzero"
     d="m 2364.9029,491.64907 c 424.6162,311.12394 490.975,501.56268 108.0142,385.2259 -248.2265,-75.40684 -225.3714,24.32164 -266.1573,-18.00208 C 2079.8467,727.17443 1845.6189,523.70174 1721.1091,450.84248 1626.6591,393.07635 1522.3191,333.02383 1429.2126,294.5364 1351.373,265.13953 1267.7568,236.65944 1194.9362,218.95985 1083.6335,194.03748 986.35222,177.28842 882.33752,167.86146 777.99971,160.87537 698.93974,160.90897 611.57988,164.60505 512.58199,172.30402 405.24697,188.32147 324.32214,212.72406 187.90361,243.66446 124.75777,282.86899 42.162042,328.96767 -47.921746,350.12366 207.44477,214.13288 285.43794,182.64849 c 23.91849,13.57558 52.76764,10.444 71.22539,-6.04968 8.23488,-7.54252 11.79878,-25.8566 13.32234,-30.73828 C 1165.4532,-33.256149 1850.0112,126.09249 2364.9029,491.64907 Z M 1822.2453,268.34034 c -5.5741,-23.81811 -30.0615,-38.95183 -56.9283,-35.76232 -79.4312,9.42972 -125.6339,133.14672 -78.1643,168.24535 56.4988,41.77471 154.2731,-50.52465 135.0926,-132.48303 z M 270.92731,148.80138 C 243.38809,99.13205 239.92293,16.64871 305.58816,40.8989 c 50.53695,34.98706 69.04353,111.59937 31.42091,134.20483 -28.44765,9.72189 -50.86512,-3.33341 -66.08176,-26.30235 z"
     id="path3509"
     inkscape:connector-curvature="0"
     sodipodi:nodetypes="csscccccccccccsssscccc"
     inkscape:export-xdpi="33.798168"
     inkscape:export-ydpi="33.798168" />
  <g
     inkscape:label="text Kopie"
     id="g3555"
     inkscape:groupmode="layer" />
  <path
     style="fill:none;fill-opacity:1"
     d="m 2619.2479,908.35591 c -31.5327,-3.29274 -74.8287,-12.72408 -133.4958,-29.0799 -72.9708,-20.34358 -78.1029,-21.58549 -112.1303,-27.13436 -34.403,-5.61013 -74.4867,-6.20524 -96.9677,-1.43966 -8.5391,1.81014 -22.7613,6.572 -31.6049,10.58187 -8.8437,4.0099 -18.1178,7.29072 -20.6092,7.29072 -2.7039,0 -24.6952,-19.64125 -54.5583,-48.72816 C 2054.1742,707.14639 1916.4643,587.95322 1816.5112,513.99065 1727.0806,447.81455 1552.7669,347.03359 1451.8276,303.14583 1396.3139,279.0088 1274.9237,238.1865 1209.8458,221.76978 1144.9561,205.40056 1028.2962,183.98486 953.69787,174.74774 834.1796,159.94842 687.69671,156.71278 579.5367,166.48296 c -76.44273,6.90513 -172.39885,22.73086 -227.8016,37.57059 -11.68515,3.12989 -35.58662,9.36089 -53.11436,13.84665 -83.37683,21.33813 -144.22791,46.38458 -228.41844,94.01758 -27.512389,15.56585 -45.4156,22.10099 -45.4156,16.57785 0,-10.56215 131.60988,-85.61242 228.18514,-130.12211 l 31.07184,-14.32042 9.94596,3.50914 c 15.87173,5.59987 36.9926,4.56613 51.18268,-2.50509 13.12949,-6.5427 17.23894,-11.40879 21.83418,-25.85438 1.65204,-5.19341 3.73774,-10.25178 4.63488,-11.24084 2.14079,-2.36016 72.88992,-16.61371 126.04987,-25.39478 254.32631,-42.010119 584.73735,-53.287542 858.49545,-29.301737 171.1058,14.991737 357.7525,57.676997 486.2915,111.212687 209.7077,87.34197 342.6552,159.35605 490.9118,265.91387 199.9391,143.70403 338.6557,273.16809 378.2127,352.98578 8.0542,16.2515 9.9706,22.79295 10.8943,37.18454 1.0127,15.78214 0.542,18.3385 -4.8905,26.54738 -7.6029,11.48866 -22.6131,18.70761 -44.9265,21.60678 -19.5522,2.54038 -26.073,2.4964 -53.4321,-0.36054 z M 1753.9998,402.43123 c 28.3634,-13.80431 55.6744,-46.1044 66.2495,-78.35195 6.4757,-19.74675 6.1582,-52.81877 -0.631,-65.72971 -6.3196,-12.01779 -11.1327,-16.29925 -25.4363,-22.62642 -15.8046,-6.99109 -35.4708,-5.38369 -56.9166,4.65204 -38.7721,18.14366 -69.3894,68.22792 -69.4332,113.58024 -0.019,19.23861 3.157,30.87665 10.9535,40.14232 17.0235,20.23128 44.5105,23.27674 75.2141,8.33348 z"
     id="path3357"
     inkscape:connector-curvature="0" />
  <path
     style="fill:none;fill-opacity:1"
     d="m 2619.2479,908.35591 c -31.5327,-3.29274 -74.8287,-12.72408 -133.4958,-29.0799 -72.9708,-20.34358 -78.1029,-21.58549 -112.1303,-27.13436 -34.403,-5.61013 -74.4867,-6.20524 -96.9677,-1.43966 -8.5391,1.81014 -22.7613,6.572 -31.6049,10.58187 -8.8437,4.0099 -18.1178,7.29072 -20.6092,7.29072 -2.7039,0 -24.6952,-19.64125 -54.5583,-48.72816 C 2054.1742,707.14639 1916.4643,587.95322 1816.5112,513.99065 1727.0806,447.81455 1552.7669,347.03359 1451.8276,303.14583 1396.3139,279.0088 1274.9237,238.1865 1209.8458,221.76978 1144.9561,205.40056 1028.2962,183.98486 953.69787,174.74774 834.1796,159.94842 687.69671,156.71278 579.5367,166.48296 c -76.44273,6.90513 -172.39885,22.73086 -227.8016,37.57059 -11.68515,3.12989 -35.58662,9.36089 -53.11436,13.84665 -83.37683,21.33813 -144.22791,46.38458 -228.41844,94.01758 -27.512389,15.56585 -45.4156,22.10099 -45.4156,16.57785 0,-10.56215 131.60988,-85.61242 228.18514,-130.12211 l 31.07184,-14.32042 9.94596,3.50914 c 15.87173,5.59987 36.9926,4.56613 51.18268,-2.50509 13.12949,-6.5427 17.23894,-11.40879 21.83418,-25.85438 1.65204,-5.19341 3.73774,-10.25178 4.63488,-11.24084 2.14079,-2.36016 72.88992,-16.61371 126.04987,-25.39478 254.32631,-42.010119 584.73735,-53.287542 858.49545,-29.301737 171.1058,14.991737 357.7525,57.676997 486.2915,111.212687 209.7077,87.34197 342.6552,159.35605 490.9118,265.91387 199.9391,143.70403 338.6557,273.16809 378.2127,352.98578 8.0542,16.2515 9.9706,22.79295 10.8943,37.18454 1.0127,15.78214 0.542,18.3385 -4.8905,26.54738 -7.6029,11.48866 -22.6131,18.70761 -44.9265,21.60678 -19.5522,2.54038 -26.073,2.4964 -53.4321,-0.36054 z M 1753.9998,402.43123 c 28.3634,-13.80431 55.6744,-46.1044 66.2495,-78.35195 6.4757,-19.74675 6.1582,-52.81877 -0.631,-65.72971 -6.3196,-12.01779 -11.1327,-16.29925 -25.4363,-22.62642 -15.8046,-6.99109 -35.4708,-5.38369 -56.9166,4.65204 -38.7721,18.14366 -69.3894,68.22792 -69.4332,113.58024 -0.019,19.23861 3.157,30.87665 10.9535,40.14232 17.0235,20.23128 44.5105,23.27674 75.2141,8.33348 z"
     id="path3359"
     inkscape:connector-curvature="0" />
  <g
     inkscape:groupmode="layer"
     id="layer3"
     inkscape:label="bruecke"
     style="display:inline">
    <path
       style="fill:#ffffff;fill-opacity:1;opacity:0.199"
       d="m 2185.7851,879.42091 c -4.169,-1.7687 -10.3877,-7.2336 -31.5247,-27.7034 -73.871,-71.5393 -124.2569,-114.0037 -175.9006,-148.246 -49.5694,-32.8669 -84.6901,-48.67227 -136.9064,-61.61185 -25.1241,-6.22593 -37.0521,-8.08889 -56.5987,-8.83982 -46.2739,-1.7777 -73.6787,11.33627 -102.8104,49.19767 -27.794,36.123 -36.6693,44.7032 -56.3686,54.4947 -18.534,9.2122 -36.201,10.8877 -52.9039,5.0171 -30.7968,-10.8242 -53.6108,-48.8361 -59.3435,-98.87604 -1.3424,-11.7176 -0.8373,-44.50246 1.065,-69.13576 2.8602,-37.03528 -1.6359,-78.48055 -11.6278,-107.18655 -18.0219,-51.77577 -51.6966,-86.75034 -128.3869,-133.34278 -35.735,-21.71046 -114.9926,-54.73195 -179.5,-74.78598 -87.3019,-27.14036 -161.1146,-41.34209 -273.50001,-52.622 -91.51873,-9.18557 -140.57662,-12.06269 -205.68111,-12.06269 -81.04622,0 -148.76013,6.69475 -188.08228,18.59534 -38.30525,11.59283 -66.00191,26.94264 -87.23661,48.34754 -18.34462,18.49166 -25.12165,32.10764 -28.91202,58.08822 -4.26399,29.22691 -11.0579,39.95103 -25.31774,39.96378 -10.21646,0.009 -19.85354,-5.20015 -37.46611,-20.25215 -18.99378,-16.23241 -29.48719,-23.51019 -44.80413,-31.07422 -36.04597,-17.80074 -69.70387,-18.82473 -133.44238,-4.05976 -27.08616,6.27449 -70.950108,21.80764 -93.621598,33.15338 -15.91593,7.96499 -30.43602,12.94849 -30.43602,10.44608 0,-1.59332 8.68512,-9.13005 15.5,-13.45052 20.42197,-12.94704 78.580348,-42.41575 110.999998,-56.24342 106.24055,-45.31387 259.84138,-81.77083 398,-94.4648 56.40762,-5.18271 131.13154,-7.27571 210.56481,-5.89788 61.29453,1.0632 92.62094,2.8393 139.24625,7.89478 60.40031,6.54908 95.66005,12.08041 185.18895,29.05129 111.1126,21.06225 191.5044,42.35019 251.5,66.59782 135.258,54.66543 242.4147,108.58795 328,165.05355 114.2672,75.38867 181.7027,124.17215 228.5,165.29896 7.7,6.76699 37.4,32.58119 66,57.36491 88.2132,76.4423 113.1125,99.1042 155.5184,141.5442 37.7322,37.7626 62.9816,66.0992 62.9816,70.6825 0,2.0967 -6.7116,1.6017 -12.6935,-0.9362 z"
       id="path4188"
       inkscape:connector-curvature="0"
       sodipodi:nodetypes="sssssssssssssssssscssssssssssssssssss" />
  </g>
</svg>
